<?xml version="1.0" encoding="utf-8"?>
<!-- Generator: Adobe Illustrator 21.1.0, SVG Export Plug-In . SVG Version: 6.00 Build 0)  -->
<svg version="1.1" id="Layer_1" xmlns="http://www.w3.org/2000/svg" xmlns:xlink="http://www.w3.org/1999/xlink" x="0px" y="0px"
	 viewBox="0 0 1920 1080" style="enable-background:new 0 0 1920 1080;" xml:space="preserve">
<style type="text/css">
	.st0{fill:none;}
	.st1{fill:#FFFFFF;}
</style>
<rect x="1315" y="1013.3" class="st0" width="191.2" height="553.7"/>
<g>
	<rect x="145.6" y="568.4" class="st0" width="9.4" height="1.9"/>
</g>
<g>
	<g>
		<path class="st1" d="M450.4,499.7c0-12.2-0.4-22-0.8-31h15.5l0.8,16.3h0.4c7.1-11.6,18.2-18.4,33.7-18.4
			c22.9,0,40.2,19.4,40.2,48.2c0,34.1-20.8,51-43.1,51c-12.5,0-23.5-5.5-29.2-14.9h-0.4v51.5h-17.1V499.7z M467.4,525
			c0,2.5,0.4,4.9,0.8,7.1c3.1,12,13.5,20.2,25.9,20.2c18.2,0,28.8-14.9,28.8-36.7c0-19-10-35.3-28.2-35.3
			c-11.8,0-22.7,8.4-26.1,21.4c-0.6,2.2-1.2,4.7-1.2,7.1V525z"/>
		<path class="st1" d="M655.9,563.6l-1.4-12H654c-5.3,7.4-15.5,14.1-29,14.1c-19.2,0-29-13.5-29-27.2c0-22.9,20.4-35.5,57-35.3v-2
			c0-7.8-2.2-22-21.6-22c-8.8,0-18,2.7-24.7,7.1l-3.9-11.4c7.8-5.1,19.2-8.4,31.2-8.4c29,0,36.1,19.8,36.1,38.8v35.5
			c0,8.2,0.4,16.3,1.6,22.7H655.9z M653.4,515.2c-18.8-0.4-40.2,2.9-40.2,21.4c0,11.2,7.4,16.5,16.3,16.5c12.3,0,20.2-7.8,22.9-15.9
			c0.6-1.8,1-3.7,1-5.5V515.2z"/>
		<path class="st1" d="M818.8,537.8c0,9.8,0.2,18.4,0.8,25.9h-15.3l-1-15.5h-0.4c-4.5,7.6-14.5,17.6-31.4,17.6
			c-14.9,0-32.7-8.2-32.7-41.6v-55.5h17.2v52.5c0,18,5.5,30.2,21.2,30.2c11.6,0,19.6-8,22.7-15.7c1-2.5,1.6-5.7,1.6-8.8v-58.2h17.2
			V537.8z"/>
		<path class="st1" d="M886.6,546c5.1,3.3,14.1,6.9,22.7,6.9c12.5,0,18.4-6.3,18.4-14.1c0-8.2-4.9-12.7-17.6-17.4
			c-17.1-6.1-25.1-15.5-25.1-26.9c0-15.3,12.3-27.8,32.7-27.8c9.6,0,18,2.7,23.3,5.9l-4.3,12.5c-3.7-2.4-10.6-5.5-19.4-5.5
			c-10.2,0-15.9,5.9-15.9,12.9c0,7.8,5.7,11.4,18,16.1c16.5,6.3,24.9,14.5,24.9,28.6c0,16.7-12.9,28.4-35.5,28.4
			c-10.4,0-20-2.5-26.7-6.5L886.6,546z"/>
	</g>
	<g>
		<path class="st1" d="M1065.1,507c0.2-11-4.5-28-23.9-28c-17.4,0-25.1,16.1-26.5,28H1065.1z"/>
	</g>
	<g>
		<path class="st1" d="M1210,276c-128.1,0-232,103.9-232,232s103.9,232,232,232s232-103.9,232-232S1338.1,276,1210,276z
			 M1079.7,516.8H1013c0.4,23.3,15.3,32.9,32.5,32.9c12.3,0,19.8-2.2,26.3-4.9l2.9,12.3c-6.1,2.7-16.5,5.9-31.6,5.9
			c-29.2,0-46.6-19.2-46.6-47.8s16.9-51.2,44.5-51.2c31,0,39.2,27.2,39.2,44.7C1080.3,512.3,1079.9,515,1079.7,516.8z M1167,603h-69
			V397h69V603z M1238.2,492.2h-24.7v51.2c0,11.8,3.3,18.4,12.9,18.4c4.5,0,7.8-0.6,10-1.2l0.8,12.9c-3.3,1.4-8.6,2.4-15.3,2.4
			c-8,0-14.5-2.5-18.6-7.3c-4.9-5.1-6.7-13.5-6.7-24.7v-51.7H1182v-13.1h14.7v-22.7l16.9-4.5v27.2h24.7V492.2z M1330,600h-69V394h69
			V600z M1373,573.3l-36.1-94.9h18.4l18.6,53.3c3.1,8.6,5.7,16.5,7.6,24.3h0.6c2.2-7.8,4.9-15.7,8-24.3l18.4-53.3h18l-37.2,94.9
			H1373z"/>
	</g>
	<g>
		<path class="st1" d="M1481.9,526.6c0.4,23.3,15.3,32.9,32.5,32.9c12.3,0,19.8-2.2,26.3-4.9l2.9,12.3c-6.1,2.7-16.5,5.9-31.6,5.9
			c-29.2,0-46.6-19.2-46.6-47.8c0-28.6,16.9-51.2,44.5-51.2c31,0,39.2,27.2,39.2,44.7c0,3.5-0.4,6.3-0.6,8H1481.9z M1532.5,514.3
			c0.2-11-4.5-28-23.9-28c-17.4,0-25.1,16.1-26.5,28H1532.5z"/>
	</g>
</g>
</svg>
